<?xml version="1.0" encoding="UTF-8"?>
<svg xmlns="http://www.w3.org/2000/svg" xmlns:xlink="http://www.w3.org/1999/xlink" width="256px" height="256px" viewBox="0 0 256 256" version="1.1">
<defs>
<radialGradient id="radial0" gradientUnits="userSpaceOnUse" cx="0" cy="0" fx="0" fy="0" r="1" gradientTransform="matrix(0.000000000000014369,234.666667,-234.666667,0.000000000000014369,128,10.666667)">
<stop offset="0" style="stop-color:rgb(33.333333%,33.333333%,33.333333%);stop-opacity:1;"/>
<stop offset="1" style="stop-color:rgb(13.333333%,13.333333%,13.333333%);stop-opacity:1;"/>
</radialGradient>
<filter id="alpha" filterUnits="objectBoundingBox" x="0%" y="0%" width="100%" height="100%">
  <feColorMatrix type="matrix" in="SourceGraphic" values="0 0 0 0 1 0 0 0 0 1 0 0 0 0 1 0 0 0 1 0"/>
</filter>
<mask id="mask0">
  <g filter="url(#alpha)">
<rect x="0" y="0" width="256" height="256" style="fill:rgb(0%,0%,0%);fill-opacity:0.192157;stroke:none;"/>
  </g>
</mask>
<clipPath id="clip1">
  <rect x="0" y="0" width="256" height="256"/>
</clipPath>
<g id="surface5" clip-path="url(#clip1)">
<path style=" stroke:none;fill-rule:evenodd;fill:rgb(100%,100%,100%);fill-opacity:1;" d="M 48.597656 94.261719 L 207.652344 94.261719 C 210.789062 94.261719 213.332031 96.695312 213.332031 99.695312 L 213.332031 100.195312 C 213.332031 103.191406 210.789062 105.625 207.652344 105.625 L 48.597656 105.625 C 45.460938 105.625 42.917969 103.191406 42.917969 100.195312 L 42.917969 99.695312 C 42.917969 96.695312 45.460938 94.261719 48.597656 94.261719 Z M 48.597656 94.261719 "/>
</g>
<mask id="mask1">
  <g filter="url(#alpha)">
<rect x="0" y="0" width="256" height="256" style="fill:rgb(0%,0%,0%);fill-opacity:0.192157;stroke:none;"/>
  </g>
</mask>
<clipPath id="clip2">
  <rect x="0" y="0" width="256" height="256"/>
</clipPath>
<g id="surface8" clip-path="url(#clip2)">
<path style=" stroke:none;fill-rule:evenodd;fill:rgb(100%,100%,100%);fill-opacity:1;" d="M 48.597656 151.070312 L 207.652344 151.070312 C 210.789062 151.070312 213.332031 153.160156 213.332031 155.742188 L 213.332031 157.753906 C 213.332031 160.335938 210.789062 162.429688 207.652344 162.429688 L 48.597656 162.429688 C 45.460938 162.429688 42.917969 160.335938 42.917969 157.753906 L 42.917969 155.742188 C 42.917969 153.160156 45.460938 151.070312 48.597656 151.070312 Z M 48.597656 151.070312 "/>
</g>
</defs>
<g id="surface1">
<path style=" stroke:none;fill-rule:evenodd;fill:url(#radial0);" d="M 102.359375 11.878906 C 103.636719 11.890625 104.859375 11.730469 106.023438 11.390625 C 121.339844 10.386719 136.652344 10.425781 151.964844 11.511719 C 165.847656 12.59375 179.289062 15.605469 192.285156 20.550781 C 213.894531 29.445312 228.679688 44.875 236.640625 66.835938 C 241.195312 80.058594 243.882812 93.65625 244.703125 107.625 C 245.84375 125.171875 245.4375 142.675781 243.484375 160.140625 C 242.019531 172.417969 238.84375 184.222656 233.953125 195.558594 C 224.878906 215.210938 210.175781 228.769531 189.84375 236.226562 C 173.367188 241.792969 156.421875 244.726562 139.011719 245.019531 C 119.429688 246.039062 100.042969 244.574219 80.851562 240.625 C 45.53125 232.753906 23.738281 211.21875 15.484375 176.019531 C 11.980469 160.171875 10.390625 144.132812 10.71875 127.898438 C 10.328125 110.640625 12.160156 93.621094 16.214844 76.851562 C 24.871094 43.9375 45.765625 23.542969 78.898438 15.664062 C 86.617188 13.777344 94.4375 12.515625 102.359375 11.878906 Z M 102.359375 11.878906 "/>
<use xlink:href="#surface5" mask="url(#mask0)"/>
<path style=" stroke:none;fill-rule:evenodd;fill:rgb(23.921569%,68.235296%,91.37255%);fill-opacity:1;" d="M 48.375 94.195312 C 45.210938 94.195312 42.667969 96.746094 42.667969 99.910156 C 42.667969 103.074219 45.210938 105.617188 48.375 105.617188 L 167.984375 105.617188 L 167.984375 94.195312 Z M 48.375 94.195312 "/>
<path style=" stroke:none;fill-rule:evenodd;fill:rgb(98.039216%,98.039216%,98.039216%);fill-opacity:1;" d="M 189.953125 99.597656 C 189.953125 90.460938 182.546875 83.054688 173.410156 83.054688 C 164.273438 83.054688 156.867188 90.460938 156.867188 99.597656 C 156.867188 108.734375 164.273438 116.140625 173.410156 116.140625 C 182.546875 116.140625 189.953125 108.734375 189.953125 99.597656 Z M 189.953125 99.597656 "/>
<use xlink:href="#surface8" mask="url(#mask1)"/>
<path style=" stroke:none;fill-rule:evenodd;fill:rgb(23.921569%,68.235296%,91.37255%);fill-opacity:1;" d="M 48.375 151 C 45.210938 151 42.667969 153.550781 42.667969 156.714844 C 42.667969 159.878906 45.210938 162.425781 48.375 162.425781 L 111.179688 162.425781 L 111.179688 151 Z M 48.375 151 "/>
<path style=" stroke:none;fill-rule:evenodd;fill:rgb(98.039216%,98.039216%,98.039216%);fill-opacity:1;" d="M 121.785156 156.402344 C 121.785156 147.265625 114.378906 139.859375 105.242188 139.859375 C 96.109375 139.859375 88.703125 147.265625 88.703125 156.402344 C 88.703125 165.539062 96.109375 172.945312 105.242188 172.945312 C 114.378906 172.945312 121.785156 165.539062 121.785156 156.402344 Z M 121.785156 156.402344 "/>
</g>
</svg>
